<?xml version="1.0" encoding="UTF-8"?> <svg xmlns="http://www.w3.org/2000/svg" viewBox="0 0 256 256"> <defs> <style>.cls-1{fill:#307fc6;}.cls-2{fill:#1c6ea0;}.cls-3{fill:#4796ec;}</style> </defs> <g id="forklift"> <path class="cls-1" d="M108.78,139.92c0-22.79,16-50.5,35.74-61.89,9.66-5.58,18.41-6.19,24.85-2.7L137.29,56.81c-6.51-4.1-15.65-3.74-25.81,2.13C91.75,70.33,75.75,98,75.75,120.83s35.73,62,35.73,62l33,19C144.12,201.48,108.78,162.6,108.78,139.92Z"></path> <path class="cls-2" d="M144.48,203.38a1.48,1.48,0,0,1-.75-.2l-33-19.05a1.64,1.64,0,0,1-.36-.29c-1.47-1.62-36.12-39.9-36.12-63s16.36-51.58,36.48-63.19c10.33-6,20-6.71,27.36-2.1l32,18.49a1.5,1.5,0,0,1-1.47,2.61c-6.24-3.37-14.54-2.42-23.38,2.69-19.29,11.13-35,38.32-35,60.59,0,21.91,35,60.57,35.31,61a1.49,1.49,0,0,1-1.11,2.5Zm-32-21.73,25.12,14.51c-10.23-12.32-30.28-38.69-30.28-56.24,0-23.23,16.37-51.58,36.49-63.19,5.67-3.28,11.2-5,16.25-5.07L136.54,58.11c-6.38-4-15-3.25-24.31,2.13-19.29,11.13-35,38.32-35,60.59C77.25,142,109.9,178.82,112.44,181.65Z"></path> <path class="cls-1" d="M144.52,201.91h0l0-.12A.38.38,0,0,1,144.52,201.91Z"></path> <path class="cls-3" d="M144.52,78c-19.74,11.39-35.74,39.1-35.74,61.89s35.74,62,35.74,62,35.73-80.47,35.73-103.26S164.25,66.63,144.52,78Zm0,59.8c-8.85,5.12-16,1-16-9.25s7.18-22.66,16-27.78,16-1,16,9.26S153.43,132.72,144.57,137.83Z"></path> <path class="cls-2" d="M144.52,203.42a1.49,1.49,0,0,1-1.11-.49c-1.48-1.62-36.13-39.9-36.13-63s16.37-51.58,36.49-63.19c10-5.79,19.53-6.68,26.77-2.5s11.21,12.85,11.21,24.43c0,22.84-34.4,100.57-35.86,103.87a1.51,1.51,0,0,1-1.13.87A1,1,0,0,1,144.52,203.42Zm.75-124.09c-19.29,11.13-35,38.32-35,60.59,0,19.28,27,51.45,33.81,59.25,5.64-12.91,34.66-80.35,34.66-100.51,0-10.46-3.45-18.22-9.71-21.84s-14.71-2.72-23.77,2.51Zm-.75-1.3h0Zm-7.11,63.5a9.76,9.76,0,0,1-4.93-1.27c-3.51-2-5.44-6.18-5.44-11.68,0-10.69,7.53-23.73,16.78-29.07,4.77-2.76,9.33-3.16,12.84-1.13s5.45,6.18,5.45,11.68c0,10.69-7.53,23.73-16.79,29.07h0A16,16,0,0,1,137.41,141.53Zm14.32-41.42a13.18,13.18,0,0,0-6.41,2C136.89,107,130,118.85,130,128.58c0,4.38,1.4,7.61,3.94,9.08s6,1.07,9.84-1.13h0c8.43-4.86,15.29-16.74,15.29-26.47,0-4.39-1.41-7.61-4-9.08A6.81,6.81,0,0,0,151.73,100.11Z"></path> <path class="cls-3" d="M128,254.28A126.28,126.28,0,1,1,254.28,128,126.42,126.42,0,0,1,128,254.28ZM128,7.72A120.28,120.28,0,1,0,248.28,128,120.41,120.41,0,0,0,128,7.72Z"></path> </g> </svg> 