<?xml version="1.0" encoding="UTF-8"?> <svg xmlns="http://www.w3.org/2000/svg" viewBox="0 0 256 256"> <defs> <style>.cls-1,.cls-3{fill:none;}.cls-1{stroke:#4796ec;stroke-width:3px;}.cls-1,.cls-2,.cls-3{stroke-linecap:round;stroke-linejoin:round;}.cls-2{fill:#4796ec;}.cls-2,.cls-3{stroke:#1c6ea0;stroke-width:1.75px;}</style> </defs> <g id="forklift"> <circle class="cls-1" cx="128" cy="128" r="126.27"></circle> <path class="cls-2" d="M215.66,125.6c0,.72,0,1.45,0,2.18C215.69,127.05,215.68,126.32,215.66,125.6Z"></path> <path class="cls-2" d="M215.56,123.18c0,.53.05,1.07.06,1.6C215.61,124.25,215.59,123.71,215.56,123.18Z"></path> <path class="cls-2" d="M190,190a1.42,1.42,0,0,1-2.32-1.57l7-15.81a1.31,1.31,0,0,0,.1-.32l3-16.25a1.41,1.41,0,0,0-1.39-1.67H180a1.41,1.41,0,0,1-1.3-.86l-6.57-15.32a1.38,1.38,0,0,1,0-1l5.5-17.44a1.11,1.11,0,0,1,.12-.27l6.15-11a1.41,1.41,0,0,1,1.33-.72l13.65.88a2,2,0,0,0,.42,0L207,106.8a1.84,1.84,0,0,1,.33,0h2.92L205.69,100a1.2,1.2,0,0,1-.21-.51L204,91.92a1.47,1.47,0,0,1,0-.75l.37-1A1.43,1.43,0,0,1,207,90a87.26,87.26,0,0,1,7.36,23,87.72,87.72,0,1,0,1,22.6A87.39,87.39,0,0,1,190,190ZM177.67,81.33l-2.26-1.17a1.43,1.43,0,0,1-.77-1.26V76.31a1.42,1.42,0,0,1,2.07-1.26l1.62.83a1.44,1.44,0,0,1,.74,1l.64,2.93A1.42,1.42,0,0,1,177.67,81.33Zm13.4-14.23a88.13,88.13,0,0,1,12,15.6,1.43,1.43,0,0,1-1.9,2,1.42,1.42,0,0,0-1.89.53l-1,1.71a1.42,1.42,0,0,0-.2.72V94a1.42,1.42,0,0,1-1.75,1.38L192,94.35a1.41,1.41,0,0,0-1.69,1l-2.41,7.75a1.4,1.4,0,0,1-1.74.94L182,102.8a1.38,1.38,0,0,1-.94-.88l-1.83-5.07A1.41,1.41,0,0,1,181,95l1.36.48a1.42,1.42,0,0,0,1.89-1.34V92.45a1.42,1.42,0,0,0-.38-1l-1.88-2a1.42,1.42,0,0,1-.19-1.68l2.71-4.64a1.63,1.63,0,0,1,.23-.29l5.37-5.38a1.39,1.39,0,0,0,.38-1.33l-1.85-7.7A1.42,1.42,0,0,1,191.07,67.1ZM140,169.72l-9.75,12.85a1.28,1.28,0,0,1-.66.48L91.19,196.48a1.42,1.42,0,0,0-.88.91l-1.84,5.76-2.5.39L82.7,199a1.44,1.44,0,0,1-.27-.83v-9.39a1.43,1.43,0,0,1,0-.29l3.61-17.6a1.41,1.41,0,0,0-.46-1.36l-5.7-4.88a1.46,1.46,0,0,1-.44-.72l-4.94-18.85a1.43,1.43,0,0,1,.28-1.27l8.83-10.65a1.41,1.41,0,0,0-.37-2.12l-4.64-2.74a1.44,1.44,0,0,1-.64-.83l-3.57-12.34a1.38,1.38,0,0,0-.25-.48L62.82,100.11A1.42,1.42,0,0,1,62.54,99L67.1,69.81a1.44,1.44,0,0,1,.65-1L92,53.71A1.38,1.38,0,0,0,92.6,53l2.22-5.7a1.39,1.39,0,0,1,.8-.81,87.31,87.31,0,0,1,20.83-5.42,1.43,1.43,0,0,1,1.43.72l.86,1.53a1.42,1.42,0,0,0,1,.71l13.92,2a1.43,1.43,0,0,1,1.17,1.77l-1.72,6.53a1.43,1.43,0,0,1-1.27,1L113.74,56.7a1.42,1.42,0,0,0-1.32,1.42V66a1.41,1.41,0,0,0,.73,1.24l2.49,1.39a1.42,1.42,0,0,0,1.81-.36l4.1-5.25a1.42,1.42,0,0,1,1.79-.37L131.42,67a1.47,1.47,0,0,1,.68.83L134.88,77a1.4,1.4,0,0,1-.82,1.72L94.19,95a1.4,1.4,0,0,0-.87,1.21l-.12,1.65a1.42,1.42,0,0,1-2.6.69L89.1,96.3l-2.87-4.09a1.38,1.38,0,0,0-1.28-.6l-9.61.8a1.4,1.4,0,0,0-1.25,1l-1.85,7a1.42,1.42,0,0,0,.69,1.6l7.77,4.28a1.42,1.42,0,0,1,.74,1.31L81,116.29l-.27,7.9a1.43,1.43,0,0,0,.47,1.1l4.05,3.61a1.41,1.41,0,0,0,2-.15l2.43-2.93a1.42,1.42,0,0,1,1.86-.29l13.55,8.74a1.49,1.49,0,0,1,.27.23l14,15.24a1.79,1.79,0,0,1,.2.28l2.43,4.43a1.48,1.48,0,0,0,.61.58l15.75,7.86A4.55,4.55,0,0,1,140,169.72Zm15.05-108.4h-3.27a1.42,1.42,0,0,0-1.25.74l-3.93,7.33a1.41,1.41,0,0,1-2.25.33l-2.44-2.44a1.43,1.43,0,0,1-.41-1.18l1.81-14.45a1.09,1.09,0,0,0,0-.18v-2.8a1.42,1.42,0,0,1,2.08-1.26l7.44,3.9a1.46,1.46,0,0,1,.67.74l2.86,7.33A1.42,1.42,0,0,1,155.08,61.32Zm16.83-1.2a1.41,1.41,0,0,1,1.41-1.42h7.88a1.49,1.49,0,0,1,.89.3c1,.81,2,1.63,3,2.48a1.42,1.42,0,0,1-.75,2.49l-1,.13a1.42,1.42,0,0,0-.92,2.32l.83,1a1.4,1.4,0,0,1,.33.92v4.26a1.42,1.42,0,0,1-2.56.84l-1.66-2.27-.12-.14-6.92-7.26a1.41,1.41,0,0,1-.39-1Z"></path> <path class="cls-2" d="M214.43,113.17c.12.7.23,1.4.34,2.1C214.66,114.57,214.55,113.87,214.43,113.17Z"></path> <path class="cls-2" d="M214.84,115.8c.08.6.16,1.19.23,1.79C215,117,214.92,116.4,214.84,115.8Z"></path> <path class="cls-2" d="M215.39,120.75c0,.52.08,1,.11,1.56C215.47,121.79,215.43,121.27,215.39,120.75Z"></path> <path class="cls-2" d="M215.15,118.31c.06.53.12,1.08.17,1.62C215.27,119.39,215.21,118.85,215.15,118.31Z"></path> <path class="cls-3" d="M153.54,52.05a1.46,1.46,0,0,0-.67-.74l-7.44-3.9a1.42,1.42,0,0,0-2.08,1.26v2.8a1.09,1.09,0,0,1,0,.18L141.53,66.1a1.43,1.43,0,0,0,.41,1.18l2.44,2.44a1.41,1.41,0,0,0,2.25-.33l3.93-7.33a1.42,1.42,0,0,1,1.25-.74h3.27a1.42,1.42,0,0,0,1.32-1.94Z"></path> <path class="cls-3" d="M179.71,79.77l-.64-2.93a1.44,1.44,0,0,0-.74-1l-1.62-.83a1.42,1.42,0,0,0-2.07,1.26V78.9a1.43,1.43,0,0,0,.77,1.26l2.26,1.17A1.42,1.42,0,0,0,179.71,79.77Z"></path> <path class="cls-3" d="M190.52,76.13a1.39,1.39,0,0,1-.38,1.33l-5.37,5.38a1.63,1.63,0,0,0-.23.29l-2.71,4.64a1.42,1.42,0,0,0,.19,1.68l1.88,2a1.42,1.42,0,0,1,.38,1v1.72a1.42,1.42,0,0,1-1.89,1.34L181,95a1.41,1.41,0,0,0-1.8,1.82l1.83,5.07a1.38,1.38,0,0,0,.94.88l4.16,1.2a1.4,1.4,0,0,0,1.74-.94l2.41-7.75a1.41,1.41,0,0,1,1.69-1l4.33,1.05A1.42,1.42,0,0,0,198.08,94V87.64a1.42,1.42,0,0,1,.2-.72l1-1.71a1.42,1.42,0,0,1,1.89-.53,1.43,1.43,0,0,0,1.9-2,88.13,88.13,0,0,0-12-15.6,1.42,1.42,0,0,0-2.4,1.33Z"></path> <path class="cls-3" d="M207,90a1.43,1.43,0,0,0-2.63.12l-.37,1a1.47,1.47,0,0,0,0,.75l1.49,7.55a1.2,1.2,0,0,0,.21.51l4.52,6.79h-2.92a1.84,1.84,0,0,0-.33,0l-7.72,1.82a2,2,0,0,1-.42,0l-13.65-.88a1.41,1.41,0,0,0-1.33.72l-6.15,11a1.11,1.11,0,0,0-.12.27l-5.5,17.44a1.38,1.38,0,0,0,0,1l6.57,15.32a1.41,1.41,0,0,0,1.3.86h16.4a1.41,1.41,0,0,1,1.39,1.67l-3,16.25a1.31,1.31,0,0,1-.1.32l-7,15.81A1.42,1.42,0,0,0,190,190,87.66,87.66,0,0,0,207,90Z"></path> <path class="cls-3" d="M179.22,71l.12.14L181,73.42a1.42,1.42,0,0,0,2.56-.84V68.32a1.4,1.4,0,0,0-.33-.92l-.83-1a1.42,1.42,0,0,1,.92-2.32l1-.13a1.42,1.42,0,0,0,.75-2.49c-1-.85-2-1.67-3-2.48a1.49,1.49,0,0,0-.89-.3h-7.88a1.41,1.41,0,0,0-1.41,1.42v2.65a1.41,1.41,0,0,0,.39,1Z"></path> <path class="cls-3" d="M138.43,162.89,122.68,155a1.48,1.48,0,0,1-.61-.58L119.64,150a1.79,1.79,0,0,0-.2-.28l-14-15.24a1.49,1.49,0,0,0-.27-.23l-13.55-8.74a1.42,1.42,0,0,0-1.86.29l-2.43,2.93a1.41,1.41,0,0,1-2,.15l-4.05-3.61a1.43,1.43,0,0,1-.47-1.1l.27-7.9.43-8.64a1.42,1.42,0,0,0-.74-1.31l-7.77-4.28a1.42,1.42,0,0,1-.69-1.6l1.85-7a1.4,1.4,0,0,1,1.25-1l9.61-.8a1.38,1.38,0,0,1,1.28.6L89.1,96.3l1.5,2.26a1.42,1.42,0,0,0,2.6-.69l.12-1.65A1.4,1.4,0,0,1,94.19,95L134.06,78.7a1.4,1.4,0,0,0,.82-1.72l-2.78-9.16a1.47,1.47,0,0,0-.68-.83l-8.08-4.39a1.42,1.42,0,0,0-1.79.37l-4.1,5.25a1.42,1.42,0,0,1-1.81.36l-2.49-1.39a1.41,1.41,0,0,1-.73-1.24V58.12a1.42,1.42,0,0,1,1.32-1.42l18.13-1.26a1.43,1.43,0,0,0,1.27-1l1.72-6.53a1.43,1.43,0,0,0-1.17-1.77l-13.92-2a1.42,1.42,0,0,1-1-.71l-.86-1.53a1.43,1.43,0,0,0-1.43-.72,87.31,87.31,0,0,0-20.83,5.42,1.39,1.39,0,0,0-.8.81L92.6,53a1.38,1.38,0,0,1-.57.69L67.75,68.83a1.44,1.44,0,0,0-.65,1L62.54,99a1.42,1.42,0,0,0,.28,1.09l11.35,14.53a1.38,1.38,0,0,1,.25.48L78,127.46a1.44,1.44,0,0,0,.64.83L83.27,131a1.41,1.41,0,0,1,.37,2.12L74.81,143.8a1.43,1.43,0,0,0-.28,1.27l4.94,18.85a1.46,1.46,0,0,0,.44.72l5.7,4.88a1.41,1.41,0,0,1,.46,1.36l-3.61,17.6a1.43,1.43,0,0,0,0,.29v9.39a1.44,1.44,0,0,0,.27.83L86,203.54l2.5-.39,1.84-5.76a1.42,1.42,0,0,1,.88-.91l38.43-13.43a1.28,1.28,0,0,0,.66-.48L140,169.72A4.55,4.55,0,0,0,138.43,162.89Z"></path> </g> </svg> 