<?xml version="1.0" encoding="UTF-8"?> <svg xmlns="http://www.w3.org/2000/svg" viewBox="0 0 256 256"> <defs> <style>.cls-1{fill:#4796ec;}.cls-2{fill:#307fc6;}.cls-3{fill:#1c6ea0;}.cls-4{fill:#fff;}</style> </defs> <g id="forklift"> <path class="cls-1" d="M128,254.28A126.28,126.28,0,1,1,254.28,128,126.42,126.42,0,0,1,128,254.28ZM128,7.72A120.28,120.28,0,1,0,248.28,128,120.41,120.41,0,0,0,128,7.72Z"></path> <ellipse class="cls-2" cx="52.34" cy="174.37" rx="14.6" ry="25.28" transform="translate(-80.17 49.53) rotate(-30)"></ellipse> <path class="cls-3" d="M60.28,199c-7.25,0-16-6.3-21.88-16.56C34.89,176.34,33,169.82,33,164c0-6.07,2.12-10.64,6-12.87,7.82-4.51,19.83,2.14,27.34,15.15,3.5,6.07,5.43,12.59,5.43,18.37,0,6.07-2.12,10.64-6,12.87A10.73,10.73,0,0,1,60.28,199Zm-16-46.18a7.58,7.58,0,0,0-3.87,1C37.55,155.44,36,159.09,36,164c0,5.26,1.79,11.25,5,16.87,6.45,11.17,17.09,17.6,23.24,14.05,2.89-1.67,4.48-5.32,4.48-10.27a34.77,34.77,0,0,0-5-16.87C58.44,158.74,50.42,152.79,44.31,152.79Z"></path> <path class="cls-2" d="M60.33,192.4c-4.27,0-11.24-4.55-16.26-13.26-2.9-5-4.56-10.52-4.56-15.1,0-3.58,1-6.2,2.71-7.2a4.19,4.19,0,0,1,2.12-.51c4.28,0,11.24,4.55,16.26,13.26,2.9,5,4.56,10.52,4.56,15.1,0,3.58-1,6.2-2.71,7.2a4.19,4.19,0,0,1-2.12.51Z"></path> <path class="cls-3" d="M60.33,193.9h0c-4.56,0-12-4.39-17.56-14-3-5.24-4.76-11-4.76-15.85,0-4.19,1.23-7.21,3.46-8.49a5.49,5.49,0,0,1,2.87-.72c4.56,0,12,4.38,17.56,14,3,5.24,4.76,11,4.76,15.85,0,4.19-1.22,7.21-3.46,8.5A5.58,5.58,0,0,1,60.33,193.9Zm0-3h0a2.67,2.67,0,0,0,1.37-.31c1.21-.7,2-3,2-5.9,0-4.32-1.58-9.55-4.36-14.35-4.69-8.13-11.21-12.51-15-12.51a2.7,2.7,0,0,0-1.37.31c-1.21.7-2,3-2,5.9,0,4.32,1.59,9.55,4.36,14.35C50.06,186.51,56.58,190.9,60.33,190.9Z"></path> <path class="cls-2" d="M59.79,187.29c-2.32-.47-7.32-3.69-11.35-10.68C46,172.4,44.56,167.7,44.56,164a8.66,8.66,0,0,1,.32-2.59c2.36.48,7.33,3.71,11.35,10.67,2.43,4.21,3.88,8.91,3.88,12.57A8.69,8.69,0,0,1,59.79,187.29Z"></path> <path class="cls-3" d="M59.8,188.79a1.53,1.53,0,0,1-.3,0c-3.15-.64-8.36-4.48-12.36-11.4-2.55-4.42-4.08-9.4-4.08-13.32a10.54,10.54,0,0,1,.38-3,1.49,1.49,0,0,1,1.74-1c3.16.65,8.37,4.49,12.35,11.39,2.56,4.42,4.08,9.4,4.08,13.32a10.15,10.15,0,0,1-.39,3.06A1.49,1.49,0,0,1,59.8,188.79Zm-13.73-25.3c0,.17,0,.35,0,.55,0,3.41,1.37,7.83,3.68,11.82,3,5.19,6.53,8.19,8.86,9.39,0-.17,0-.36,0-.56,0-3.41-1.37-7.83-3.68-11.82C52,167.7,48.4,164.7,46.07,163.49Z"></path> <path class="cls-1" d="M129.43,130.11a24,24,0,0,0-1.69-3.56c-3.08-5.33-11.86-9.9-11.88-9.92L40.92,151.74c7-2.65,17.44,3.83,24,15.22,6.46,11.24,6.9,23.3,1.34,28.19l64.87-47.41C128.26,144,127.58,137.3,129.43,130.11Z"></path> <path class="cls-3" d="M66.26,196.65a1.5,1.5,0,0,1-1-2.63c5-4.41,4.3-16-1.65-26.31-6.08-10.56-15.82-17-22.17-14.57a1.5,1.5,0,0,1-1.17-2.76l74.94-35.1a1.49,1.49,0,0,1,1.32,0c.09,0,9.16,4.73,12.5,10.5a25.58,25.58,0,0,1,1.79,3.78,1.46,1.46,0,0,1,0,.9c-1.71,6.67-1.16,12.93,1.44,16.35A1.5,1.5,0,0,1,132,149L67.14,196.36A1.5,1.5,0,0,1,66.26,196.65ZM47.88,150.13c6.44,1.68,13.45,7.58,18.34,16.09,4.78,8.31,6.4,17.22,4.73,23.64l58.14-42.49c-2.4-4.18-2.87-10.42-1.23-17.16a23,23,0,0,0-1.42-2.91c-2.37-4.11-8.62-7.85-10.63-9Z"></path> <path class="cls-1" d="M217.42,79.22c-7-12.11-16.81-15.4-21-14.61L140.52,102c2.72,1.34,5.52,4.15,7.94,7.48a7.7,7.7,0,0,1,2.27.5c6.06,2.44,7.81,12.46,4.26,22.92l60.84-28C222.82,100.87,224.38,91.32,217.42,79.22Z"></path> <path class="cls-3" d="M155,134.41a1.49,1.49,0,0,1-1.42-2c3.29-9.71,1.8-19-3.4-21a6,6,0,0,0-1.82-.4,1.52,1.52,0,0,1-1.1-.62c-2.47-3.39-5.1-5.88-7.4-7a1.47,1.47,0,0,1-.83-1.24,1.5,1.5,0,0,1,.66-1.35l55.91-37.39a1.62,1.62,0,0,1,.56-.23c5.15-1,15.55,3.13,22.57,15.33h0c7,12.09,6.12,23-2.14,27.72l-.12.07-60.85,28A1.5,1.5,0,0,1,155,134.41Zm-5.72-26.34a8.47,8.47,0,0,1,2,.53c6.15,2.47,8.54,11.44,6.07,21.58l57.79-26.62c6.62-3.86,7-13.11,1-23.59C209.49,68.44,200.45,65.63,197,66.05L143.3,102A29.64,29.64,0,0,1,149.27,108.07Z"></path> <path class="cls-3" d="M129.43,131.62a1.5,1.5,0,0,1-1.4-1,23.31,23.31,0,0,0-1.59-3.35c-2.37-4.1-8.62-7.85-10.64-9l-6,2.84a1.49,1.49,0,0,1-1.32,0,1.55,1.55,0,0,1-.79-1.07c-.72-4-.34-6.64,1.2-8.48,2.35-2.81,6.67-2.79,12.15-2.77h1.56a77.27,77.27,0,0,0,6.89-4.49c5.83-4,6.93-4.68,7.86-4.68,5.09,0,9.94,5.61,12.37,9a1.5,1.5,0,0,1-1.32,2.38c-5.51-.41-12.4,6.07-16,15.07h0a36.42,36.42,0,0,0-1.44,4.43,1.5,1.5,0,0,1-1.37,1.12Zm-13.57-16.49a1.56,1.56,0,0,1,.69.17c.37.2,9.22,4.84,12.49,10.5l.11.19c.13-.35.26-.7.4-1,3.56-8.85,9.94-15.35,16-16.71-2.91-3.44-5.84-5.47-8.09-5.57-.9.39-4,2.55-6.33,4.14-6.1,4.22-7.44,5-8.44,5H121c-4.51,0-8.39,0-9.84,1.69-.7.83-1,2.17-.81,4.07l4.89-2.3A1.57,1.57,0,0,1,115.86,115.13Zm15.08,10.37h0Z"></path> <path class="cls-3" d="M137.37,152.44a9.28,9.28,0,0,1-3.45-.66c-7.32-2.95-9.24-14.74-4.37-26.84S144,105.66,151.29,108.6c3.63,1.46,6,5.16,6.79,10.41a32.85,32.85,0,0,1-2.43,16.43C151.52,145.71,144,152.44,137.37,152.44ZM147.88,111c-5.34,0-12,6.24-15.55,15.11-4.1,10.19-2.86,20.69,2.71,22.93s13.73-4.48,17.83-14.67a29.83,29.83,0,0,0,2.24-14.88c-.59-4.15-2.35-7-4.94-8A6,6,0,0,0,147.88,111Z"></path> <path class="cls-3" d="M136.92,135.34l-.19,0a1.49,1.49,0,0,1-1.3-1.67,23.63,23.63,0,0,1,3.78-9.34c2.74-4.24,6-7.06,8.62-7.36a3.33,3.33,0,0,1,2.76.87,1.5,1.5,0,1,1-2.08,2.16s-.08-.08-.34,0c-1.37.16-4,2.27-6.45,6A21.12,21.12,0,0,0,138.4,134,1.5,1.5,0,0,1,136.92,135.34Z"></path> <line class="cls-4" x1="114.25" y1="115.62" x2="116.56" y2="117.02"></line> <path class="cls-3" d="M116.56,118.52a1.46,1.46,0,0,1-.77-.22l-2.32-1.4a1.5,1.5,0,0,1,1.56-2.57l2.31,1.41a1.5,1.5,0,0,1,.51,2.06A1.52,1.52,0,0,1,116.56,118.52Z"></path> <path class="cls-3" d="M137.41,176.48a1.49,1.49,0,0,1-1.29-.74c-5.63-9.61-5.08-25.26-5.06-25.92a1.5,1.5,0,0,1,3,.12c0,.13-.39,11.19,2.67,19.94A32.42,32.42,0,0,1,144,155.79a1.5,1.5,0,1,1,2.21,2c-6.74,7.37-7.34,17.14-7.34,17.24a1.51,1.51,0,0,1-1.15,1.38A1.34,1.34,0,0,1,137.41,176.48Z"></path> <path class="cls-3" d="M153.33,169.26a1.44,1.44,0,0,1-.75-.21,33.67,33.67,0,0,1-10.18-9.31,1.5,1.5,0,0,1,2.49-1.68,30.77,30.77,0,0,0,6,6.25c-1.3-5.55-3.34-15.75-2.38-21.94a1.5,1.5,0,1,1,3,.47c-1.24,8,3.24,24.35,3.28,24.52a1.48,1.48,0,0,1-.52,1.58A1.51,1.51,0,0,1,153.33,169.26Z"></path> </g> </svg> 