<?xml version="1.0" encoding="UTF-8"?> <svg xmlns="http://www.w3.org/2000/svg" viewBox="0 0 256 256"> <defs> <style>.cls-1{fill:#307fc6;}.cls-2{fill:#1c6ea0;}.cls-3{fill:#4796ec;}</style> </defs> <g id="forklift"> <path class="cls-1" d="M208,161.36V161l-91,52.57a10.77,10.77,0,0,1-10.76,0L61.67,187.84h0a7.34,7.34,0,0,0,3.68,6.37l42.23,24.38a8.08,8.08,0,0,0,8.07,0l89-51.4A6.72,6.72,0,0,0,208,161.36Z"></path> <path class="cls-2" d="M111.61,221.17a9.57,9.57,0,0,1-4.78-1.28L64.6,195.51a8.89,8.89,0,0,1-4.43-7.67,1.52,1.52,0,0,1,.75-1.3,1.49,1.49,0,0,1,1.5,0L107,212.27a9.28,9.28,0,0,0,9.26,0l91.05-52.57a1.5,1.5,0,0,1,2.25,1.3v.36a8.26,8.26,0,0,1-4.11,7.13l-89,51.4A9.61,9.61,0,0,1,111.61,221.17ZM64.08,191a5.81,5.81,0,0,0,2,1.95l42.23,24.38a6.59,6.59,0,0,0,6.57,0l89-51.4a5.26,5.26,0,0,0,1.88-1.87l-88.07,50.85a12.31,12.31,0,0,1-12.26,0Z"></path> <path class="cls-3" d="M158.1,132.17,61.67,187.84l46.58,26.89a6.74,6.74,0,0,0,6.73,0L208,161Zm-42,76.85a2.69,2.69,0,0,1-1.35-.37L74.22,185.26l83.88-48.43L200,161l-82.54,47.65A2.65,2.65,0,0,1,116.09,209Z"></path> <path class="cls-2" d="M111.61,217.13a8.25,8.25,0,0,1-4.11-1.1L60.92,189.14a1.5,1.5,0,0,1,0-2.6l96.43-55.67a1.49,1.49,0,0,1,1.5,0l49.94,28.83a1.5,1.5,0,0,1,0,2.6L115.73,216A8.29,8.29,0,0,1,111.61,217.13ZM64.67,187.84,109,213.43a5.25,5.25,0,0,0,5.23,0L205,161,158.1,133.9Zm51.42,22.68A4.19,4.19,0,0,1,114,210L73.47,186.56a1.5,1.5,0,0,1,0-2.6l83.88-48.43a1.49,1.49,0,0,1,1.5,0l41.87,24.17a1.5,1.5,0,0,1,0,2.6L118.18,210A4.15,4.15,0,0,1,116.09,210.52ZM77.22,185.26l38.27,22.1a1.26,1.26,0,0,0,1.19,0L197,161,158.1,138.56Z"></path> <polygon class="cls-1" points="73.88 154.2 66.07 149.66 62.11 143.82 65.72 141.7 73.88 154.2"></polygon> <path class="cls-2" d="M73.88,155.7a1.44,1.44,0,0,1-.75-.21L65.32,151a1.65,1.65,0,0,1-.49-.46l-4-5.84a1.43,1.43,0,0,1-.22-1.17,1.48,1.48,0,0,1,.7-1L65,140.4a1.51,1.51,0,0,1,2,.48l8.16,12.5a1.5,1.5,0,0,1-1.26,2.32Zm-6.76-7.17,2,1.19-3.92-6-1,.58Z"></path> <path class="cls-2" d="M53,102.08a1.53,1.53,0,0,1-.75-.2l-9.18-5.3a1.5,1.5,0,0,1,0-2.6l60.5-34.93a1.49,1.49,0,0,1,1.5,0l9.18,5.3a1.48,1.48,0,0,1,.75,1.3,1.5,1.5,0,0,1-.75,1.3l-60.5,34.93A1.53,1.53,0,0,1,53,102.08Zm-6.18-6.8L53,98.85l57.5-33.2-6.18-3.57Z"></path> <polygon class="cls-1" points="52.98 149.17 43.8 143.84 43.8 95.28 52.98 100.58 52.98 149.17"></polygon> <path class="cls-2" d="M53,150.67a1.49,1.49,0,0,1-.76-.2L43,145.14a1.51,1.51,0,0,1-.74-1.3V95.28A1.5,1.5,0,0,1,44.55,94l9.18,5.3a1.51,1.51,0,0,1,.75,1.3v48.59a1.5,1.5,0,0,1-.75,1.3A1.46,1.46,0,0,1,53,150.67ZM45.3,143l6.18,3.59V101.44L45.3,97.88Z"></path> <path class="cls-3" d="M53,100.6v48.57l12.74-7.47,8.16,12.5L77.29,135l36.19-20.78V65.67Zm41.07,13.05L64.49,130.71v-8.88l29.56-17.07Zm8.09-23.14L64.32,112.34v-8.88l37.82-21.84Z"></path> <path class="cls-2" d="M73.88,155.7a1.51,1.51,0,0,1-1.26-.68l-7.37-11.3-11.51,6.75a1.51,1.51,0,0,1-2.26-1.3V100.6a1.5,1.5,0,0,1,.75-1.3l60.5-34.93a1.5,1.5,0,0,1,2.25,1.3v48.57a1.51,1.51,0,0,1-.75,1.3L78.64,136l-3.28,18.48a1.5,1.5,0,0,1-1.48,1.24Zm-8.16-15.5a1.51,1.51,0,0,1,1.26.68l6.09,9.33,2.74-15.45a1.49,1.49,0,0,1,.73-1L112,113.37V68.27l-57.5,33.2v45.08L65,140.4A1.49,1.49,0,0,1,65.72,140.2Zm-1.23-8a1.43,1.43,0,0,1-.75-.2,1.5,1.5,0,0,1-.75-1.3v-8.88a1.51,1.51,0,0,1,.75-1.3L93.3,103.47a1.49,1.49,0,0,1,1.5,0,1.47,1.47,0,0,1,.75,1.29v8.89a1.5,1.5,0,0,1-.75,1.3L65.24,132A1.43,1.43,0,0,1,64.49,132.21ZM66,122.7v5.42l26.56-15.34v-5.42Zm28.06-9h0Zm-29.73.19a1.43,1.43,0,0,1-.75-.2,1.51,1.51,0,0,1-.75-1.3v-8.88a1.51,1.51,0,0,1,.75-1.3l37.82-21.84a1.54,1.54,0,0,1,1.5,0,1.52,1.52,0,0,1,.75,1.3v8.89a1.52,1.52,0,0,1-.75,1.3L65.07,113.64A1.43,1.43,0,0,1,64.32,113.84Zm1.5-9.51v5.42l34.82-20.11V84.22Zm36.32-13.82h0Z"></path> <polygon class="cls-3" points="182.23 130.12 190.04 125.58 194.01 119.73 190.39 117.61 182.23 130.12"></polygon> <path class="cls-2" d="M182.23,131.62a1.47,1.47,0,0,1-1.08-.47,1.5,1.5,0,0,1-.17-1.85l8.16-12.5a1.5,1.5,0,0,1,2-.48l3.61,2.12a1.5,1.5,0,0,1,.71,1,1.54,1.54,0,0,1-.22,1.18l-4,5.84a1.42,1.42,0,0,1-.49.45l-7.8,4.54A1.5,1.5,0,0,1,182.23,131.62Zm8.64-12-3.92,6,2-1.19,2.87-4.23Z"></path> <path class="cls-2" d="M203.14,78a1.44,1.44,0,0,1-.75-.21L141.88,42.86a1.5,1.5,0,0,1,0-2.6L151,35a1.49,1.49,0,0,1,1.5,0L213,70a1.5,1.5,0,0,1,0,2.6l-9.06,5.23A1.44,1.44,0,0,1,203.14,78ZM145.63,41.56l57.51,33.2,6.06-3.5-57.5-33.2Z"></path> <polygon class="cls-3" points="203.14 125.09 212.2 119.82 212.2 71.26 203.14 76.5 203.14 125.09"></polygon> <path class="cls-2" d="M203.14,126.59a1.53,1.53,0,0,1-.75-.2,1.49,1.49,0,0,1-.75-1.3V76.5a1.48,1.48,0,0,1,.75-1.3L211.45,70a1.5,1.5,0,0,1,2.25,1.3v48.56a1.5,1.5,0,0,1-.74,1.3l-9.07,5.27A1.53,1.53,0,0,1,203.14,126.59Zm1.5-49.23v45.12L210.7,119V73.86Z"></path> <path class="cls-1" d="M203.14,76.52,142.63,41.59V90.16l36.2,20.78,3.4,19.18,8.16-12.5,12.75,7.47ZM191.62,106,162.06,89V80.09l29.56,17.07Zm.18-18.37L154,65.84V57L191.8,78.79Z"></path> <path class="cls-2" d="M182.23,131.62a1.53,1.53,0,0,1-.3,0,1.5,1.5,0,0,1-1.17-1.21l-3.28-18.49L141.89,91.46a1.5,1.5,0,0,1-.76-1.3V41.59a1.51,1.51,0,0,1,.75-1.3,1.49,1.49,0,0,1,1.5,0l60.51,34.93a1.51,1.51,0,0,1,.75,1.3v48.57a1.5,1.5,0,0,1-.76,1.3,1.47,1.47,0,0,1-1.5,0l-11.51-6.75-7.38,11.31A1.51,1.51,0,0,1,182.23,131.62Zm-38.1-42.33,35.45,20.35a1.52,1.52,0,0,1,.73,1l2.74,15.44,6.09-9.32a1.49,1.49,0,0,1,2-.48l10.49,6.15V77.39L144.13,44.18Zm47.49,18.25a1.53,1.53,0,0,1-.75-.2L161.31,90.27a1.49,1.49,0,0,1-.75-1.29V80.09a1.52,1.52,0,0,1,.75-1.3,1.49,1.49,0,0,1,1.5,0l29.56,17.07a1.49,1.49,0,0,1,.75,1.3V106a1.49,1.49,0,0,1-.75,1.3A1.53,1.53,0,0,1,191.62,107.54ZM163.56,88.11l26.56,15.33V98L163.56,82.69Zm28.24,1.06a1.53,1.53,0,0,1-.75-.2L153.22,67.13a1.49,1.49,0,0,1-.75-1.29V57a1.52,1.52,0,0,1,.75-1.3,1.49,1.49,0,0,1,1.5,0l37.83,21.84a1.51,1.51,0,0,1,.75,1.3v8.88a1.51,1.51,0,0,1-.75,1.3A1.59,1.59,0,0,1,191.8,89.17ZM155.47,65l34.83,20.1V79.65l-34.83-20.1Z"></path> <path class="cls-3" d="M128,254.28A126.28,126.28,0,1,1,254.28,128,126.42,126.42,0,0,1,128,254.28ZM128,7.72A120.28,120.28,0,1,0,248.28,128,120.41,120.41,0,0,0,128,7.72Z"></path> </g> </svg> 