<?xml version="1.0" encoding="UTF-8"?> <svg xmlns="http://www.w3.org/2000/svg" viewBox="0 0 256 256"> <defs> <style>.cls-1{fill:#1c6ea0;}.cls-2{fill:#4796ec;}.cls-3{fill:#307fc6;}</style> </defs> <g id="forklift"> <path class="cls-1" d="M88.14,152a1.43,1.43,0,0,1-.75-.2L59.86,136a1.5,1.5,0,0,1,0-2.6l27.41-16a1.49,1.49,0,0,1,1.5,0l22.35,12.79a1.48,1.48,0,0,1,.76,1.29,1.5,1.5,0,0,1-.75,1.31L105,136.44l2.93,1.67a1.51,1.51,0,0,1,0,2.6l-19,11.07A1.53,1.53,0,0,1,88.14,152ZM63.6,134.71l24.53,14,16-9.32-2.92-1.68a1.49,1.49,0,0,1,0-2.59l6.17-3.6L88,120.49Z"></path> <polygon class="cls-2" points="101.99 142.41 88.14 150.48 88.28 164.69 102.06 156.66 101.99 142.41"></polygon> <path class="cls-1" d="M88.28,166.19a1.51,1.51,0,0,1-.74-.19,1.54,1.54,0,0,1-.76-1.29l-.14-14.21a1.52,1.52,0,0,1,.74-1.32l13.85-8.06a1.49,1.49,0,0,1,1.5,0,1.54,1.54,0,0,1,.76,1.29l.08,14.25a1.52,1.52,0,0,1-.75,1.31L89,166A1.49,1.49,0,0,1,88.28,166.19Zm1.36-14.85.11,10.76,10.81-6.3L100.5,145Z"></path> <polygon class="cls-3" points="60.6 134.73 60.75 148.94 88.28 164.69 88.14 150.48 60.6 134.73"></polygon> <path class="cls-1" d="M88.28,166.19a1.4,1.4,0,0,1-.74-.2L60,150.24a1.48,1.48,0,0,1-.75-1.29l-.15-14.21a1.51,1.51,0,0,1,.74-1.31,1.53,1.53,0,0,1,1.51,0l27.53,15.76a1.51,1.51,0,0,1,.76,1.29l.14,14.21A1.51,1.51,0,0,1,89,166,1.57,1.57,0,0,1,88.28,166.19Zm-26-18.13,24.51,14-.11-10.73-24.51-14Z"></path> <path class="cls-1" d="M128.64,153.22a1.51,1.51,0,0,1-.74-.19l-26.69-15.28a1.49,1.49,0,0,1,0-2.59l26.57-15.48a1.51,1.51,0,0,1,1.5,0L156,134.94a1.51,1.51,0,0,1,.75,1.3,1.48,1.48,0,0,1-.74,1.3L129.4,153A1.49,1.49,0,0,1,128.64,153.22ZM105,136.44,128.64,150l23.57-13.73-23.68-13.55Z"></path> <polygon class="cls-2" points="155.21 136.25 155.42 172.65 128.84 188.13 128.64 151.72 155.21 136.25"></polygon> <path class="cls-1" d="M128.84,189.63a1.5,1.5,0,0,1-1.49-1.5l-.21-36.4a1.5,1.5,0,0,1,.75-1.3L154.46,135a1.49,1.49,0,0,1,2.25,1.29l.21,36.4a1.51,1.51,0,0,1-.75,1.3L129.6,189.42A1.45,1.45,0,0,1,128.84,189.63Zm1.31-37,.18,32.94,23.58-13.73-.18-32.94Z"></path> <polygon class="cls-3" points="101.95 136.45 102.16 172.85 128.84 188.13 128.64 151.72 101.95 136.45"></polygon> <path class="cls-1" d="M128.84,189.63a1.52,1.52,0,0,1-.74-.2l-26.69-15.27a1.51,1.51,0,0,1-.75-1.3l-.21-36.4a1.51,1.51,0,0,1,2.25-1.31l26.69,15.27a1.51,1.51,0,0,1,.75,1.3l.2,36.4a1.49,1.49,0,0,1-.74,1.3A1.45,1.45,0,0,1,128.84,189.63ZM103.65,172l23.68,13.55-.18-32.93-23.68-13.55Z"></path> <path class="cls-1" d="M167.18,203.54a1.53,1.53,0,0,1-.75-.2l-26.69-15.27a1.51,1.51,0,0,1,0-2.6L166.3,170a1.51,1.51,0,0,1,1.5,0l26.69,15.27a1.5,1.5,0,0,1,0,2.6l-26.57,15.48A1.53,1.53,0,0,1,167.18,203.54Zm-23.69-16.78,23.68,13.55,23.58-13.74L167.07,173Z"></path> <polygon class="cls-2" points="193.75 186.56 193.89 195.68 167.32 211.16 167.18 202.04 193.75 186.56"></polygon> <path class="cls-1" d="M167.32,212.66a1.6,1.6,0,0,1-.74-.19,1.52,1.52,0,0,1-.76-1.29l-.14-9.12a1.5,1.5,0,0,1,.74-1.32L193,185.27a1.49,1.49,0,0,1,1.5,0,1.51,1.51,0,0,1,.76,1.28l.14,9.12a1.51,1.51,0,0,1-.75,1.32l-26.57,15.48A1.53,1.53,0,0,1,167.32,212.66Zm1.37-9.76.09,5.67,23.59-13.74-.08-5.68Z"></path> <polygon class="cls-3" points="140.49 186.77 140.63 195.89 167.32 211.16 167.18 202.04 140.49 186.77"></polygon> <path class="cls-1" d="M167.32,212.66a1.53,1.53,0,0,1-.75-.2l-26.69-15.27a1.5,1.5,0,0,1-.75-1.28l-.14-9.12a1.5,1.5,0,0,1,2.24-1.32l26.69,15.27a1.51,1.51,0,0,1,.76,1.28l.14,9.12a1.51,1.51,0,0,1-1.5,1.52ZM142.11,195l23.67,13.54-.09-5.63L142,189.38Z"></path> <path class="cls-1" d="M128.23,124.44a14.35,14.35,0,0,1-14.34-14.34v-.53A13.26,13.26,0,0,0,108.49,99a32.72,32.72,0,1,1,39.26.16,13,13,0,0,0-5.18,10.42v.54A14.35,14.35,0,0,1,128.23,124.44Zm0-81.28c-.72,0-1.44,0-2.16.08A29.72,29.72,0,0,0,110.3,96.59a16.24,16.24,0,0,1,6.59,13v.53a11.34,11.34,0,0,0,22.68,0v-.54A16,16,0,0,1,146,96.74a29.49,29.49,0,0,0,12-23.85,29.82,29.82,0,0,0-9.45-21.74A29.46,29.46,0,0,0,128.25,43.16Z"></path> <path class="cls-2" d="M128.34,112.28c-6.79,0-12.07-2.65-13.27-5.42,0,6.06,1.2,10.65,1,11.93,0,3.16,4.42,6.68,12.24,6.68s12-3.52,12-6.68a92.39,92.39,0,0,0,1-12.05C140.32,109.55,135.23,112.28,128.34,112.28Z"></path> <path class="cls-1" d="M128.34,127c-8.93,0-13.74-4.21-13.74-8.18a1.34,1.34,0,0,1,0-.2,19,19,0,0,0-.27-2.46,62.36,62.36,0,0,1-.77-9.28,1.5,1.5,0,0,1,2.88-.59c.79,1.83,5.11,4.52,11.89,4.52s10.95-2.73,11.64-4.57a1.5,1.5,0,0,1,2.9.52,91.76,91.76,0,0,1-1,12.19C141.76,122.84,137,127,128.34,127Zm-10.74-8.11c.08,2.17,3.8,5.11,10.74,5.11,7.18,0,10.52-3.09,10.52-5.18a.93.93,0,0,1,0-.23s.58-3.78.85-7.78a20.94,20.94,0,0,1-11.39,3,21.72,21.72,0,0,1-11.62-3c.15,1.92.39,3.59.59,4.95A15.77,15.77,0,0,1,117.6,118.86Z"></path> <path class="cls-1" d="M128.42,113.78a1.5,1.5,0,0,1-1.5-1.5v-9.76a1.5,1.5,0,1,1,3,0v9.76A1.5,1.5,0,0,1,128.42,113.78Z"></path> <path class="cls-1" d="M128.42,104.23a1.47,1.47,0,0,1-1.06-.44L121.54,98a1.5,1.5,0,0,1-.44-1.06V91a1.5,1.5,0,0,1,3,0v5.29l4.32,4.32,4.32-4.32V91a1.5,1.5,0,0,1,3,0v5.91A1.46,1.46,0,0,1,135.3,98l-5.82,5.82A1.45,1.45,0,0,1,128.42,104.23Z"></path> <path class="cls-2" d="M128,254.28A126.28,126.28,0,1,1,254.28,128,126.42,126.42,0,0,1,128,254.28ZM128,7.72A120.28,120.28,0,1,0,248.28,128,120.41,120.41,0,0,0,128,7.72Z"></path> </g> </svg> 