<?xml version="1.0" encoding="UTF-8"?> <svg xmlns="http://www.w3.org/2000/svg" viewBox="0 0 256 256"> <defs> <style>.cls-1{fill:#4796ec;}.cls-2{fill:#307fc6;}.cls-3{fill:#1c6ea0;}.cls-4{fill:#fff;}</style> </defs> <g id="forklift"> <path class="cls-1" d="M128,254.28A126.28,126.28,0,1,1,254.28,128,126.42,126.42,0,0,1,128,254.28ZM128,7.72A120.28,120.28,0,1,0,248.28,128,120.41,120.41,0,0,0,128,7.72Z"></path> <path class="cls-2" d="M85.43,168a26.51,26.51,0,0,1-20.17-9.29C71.19,154.31,76,148,79.74,141.21c4.39-8.08,7.38-17,10.22-25.86a26.55,26.55,0,0,1,21.92,24.07c8.5-25.64-26.93-42.35-40.1-34.49a47.59,47.59,0,0,0-10.59,8.83c-12.85,14.07-14.81,30.62-8.6,47.1h0c6.3,15.69,20.85,20.78,36,18.46L85.88,168Z"></path> <path class="cls-3" d="M81.76,181.36c-14.27,0-25.43-7.15-30.56-19.94-6.8-18-3.73-34.86,8.88-48.67A49,49,0,0,1,71,103.64c7.62-4.55,22.14-1.58,32.36,6.62,9.91,8,13.53,18.77,9.93,29.63a1.49,1.49,0,0,1-1.6,1,1.51,1.51,0,0,1-1.32-1.37A25,25,0,0,0,91,117.08c-2.78,8.63-5.68,17-9.93,24.84a56.11,56.11,0,0,1-13.6,17,25,25,0,0,0,18,7.61h.43a1.5,1.5,0,0,1,1.48,1.15L90.06,179a1.48,1.48,0,0,1-.21,1.18,1.51,1.51,0,0,1-1,.65A47,47,0,0,1,81.76,181.36ZM80,104.49a14.58,14.58,0,0,0-7.44,1.73,45.81,45.81,0,0,0-10.26,8.56C50.5,127.7,47.63,143.45,54,160.33c5.28,13.17,17.17,19.58,32.75,17.73l-2-8.53a28,28,0,0,1-20.57-9.81,1.49,1.49,0,0,1,.24-2.18c5.34-4,10.07-9.73,14-17,4.34-8,7.26-16.66,10.12-25.59a1.5,1.5,0,0,1,1.68-1,28,28,0,0,1,21.44,17.73c0-5.61-2.15-12.56-10.17-19C95.09,107.47,86.69,104.49,80,104.49Z"></path> <path class="cls-3" d="M85.43,169.54a28,28,0,0,1-21.3-9.82,1.49,1.49,0,0,1,.24-2.18c5.34-4,10.07-9.73,14-17,4.34-8,7.26-16.66,10.12-25.59a1.5,1.5,0,0,1,1.68-1,28,28,0,0,1-4.79,55.67Zm-18-10.61A25,25,0,1,0,91,117.08c-2.78,8.63-5.68,17-9.93,24.84A56.11,56.11,0,0,1,67.46,158.93Z"></path> <path class="cls-3" d="M63.43,161.81a49.23,49.23,0,0,0,14.7-15,98.4,98.4,0,0,0,9.92-21c1.51-4.22,2.86-8.49,4.22-12.75a1.5,1.5,0,1,0-2.9-.8c-4.43,14-9,28.73-19,39.79a40.6,40.6,0,0,1-8.42,7.16c-1.63,1-.13,3.62,1.51,2.59Z"></path> <path class="cls-3" d="M152,206.81a1,1,0,0,1-.24,0c-16.47-2.66-20.41-11.53-22-19-.93-4.35-1.63-7.1-1.92-8.19-4.91-3.43-5-7.53-4.11-10.41C127,158,149.94,146,163.74,145.9a43.36,43.36,0,0,0,7.39-5.08,1.5,1.5,0,0,1,2.43.93,21.58,21.58,0,0,1,.2,4.09c4.4-.77,9.05-2.47,14.52-4.58a1.5,1.5,0,0,1,2,1.3c.2,2.89-2.4,8.44-4.36,12.17l.66-.16a1.49,1.49,0,0,1,1.5.47,1.53,1.53,0,0,1,.25,1.56,18.35,18.35,0,0,1-7.26,8,1.39,1.39,0,0,1-.53.18l-1.17.18-26.17,41.18A1.52,1.52,0,0,1,152,206.81Zm18.82-61.92c-2.48,1.86-5.7,4-6.85,4-13.37,0-34.67,12.08-37.37,21.18-.86,2.93.23,5.33,3.36,7.36a1.48,1.48,0,0,1,.62.85c0,.12.87,3.08,2.12,8.91,1.44,6.74,4.79,13.94,18.57,16.46l26-40.91a1.5,1.5,0,0,1,1-.68l1.55-.23a15.11,15.11,0,0,0,3.9-3.45l-.38.09a1.5,1.5,0,0,1-1.66-2.2A60.72,60.72,0,0,0,186.94,145c-5.4,2-10.06,3.57-14.68,4.1a1.53,1.53,0,0,1-1.26-.46,1.49,1.49,0,0,1-.39-1.27A16.38,16.38,0,0,0,170.78,144.89Z"></path> <path class="cls-1" d="M174.71,159.93a43.45,43.45,0,0,1-7.2,4,23,23,0,0,0-11,10.73,28.68,28.68,0,0,0-3.06,13.12v11.9a10.13,10.13,0,0,1-1.68-.13,7.45,7.45,0,0,1-6.13-6.44h0a6.45,6.45,0,0,0-5.1-5.56c-1.68-.3-3.07.24-2.92,2.26.14.69.31,1.36.5,2h0a26.84,26.84,0,1,0,36.58-32Z"></path> <path class="cls-3" d="M163.93,212.85a28.46,28.46,0,0,1-27.25-20.55c-.22-.77-.39-1.47-.52-2.14l0-.19a3.58,3.58,0,0,1,1.06-3.07,4.14,4.14,0,0,1,3.62-.78,7.9,7.9,0,0,1,6.32,6.84,6,6,0,0,0,4.83,5.15V187.83a30.16,30.16,0,0,1,3.23-13.8,24.26,24.26,0,0,1,11.7-11.42,42.06,42.06,0,0,0,7-3.9,1.49,1.49,0,0,1,1.47-.15,28.34,28.34,0,0,1-11.38,54.29Zm-24.81-23.18c.11.56.26,1.15.45,1.8a25.34,25.34,0,1,0,35.29-29.82,47.08,47.08,0,0,1-6.74,3.69,21.44,21.44,0,0,0-10.27,10.06A27.31,27.31,0,0,0,155,187.83v11.9a1.5,1.5,0,0,1-1.5,1.5,13.1,13.1,0,0,1-1.91-.14,9,9,0,0,1-7.39-7.73,5,5,0,0,0-3.88-4.28c-.69-.13-1,0-1.08,0S139.1,189.31,139.12,189.67Z"></path> <path class="cls-3" d="M153.46,201.23a12.42,12.42,0,0,1-1.86-.14,9,9,0,0,1-7.45-7.77,4.81,4.81,0,0,0-3.82-4.18c-.69-.11-1,0-1.11.09s-.22.72.31,2.13l-2.81,1.06c-.83-2.22-.77-3.93.18-5.1a4,4,0,0,1,3.93-1.13,7.85,7.85,0,0,1,6.3,6.72,6,6,0,0,0,4.83,5.2V187.83a30.16,30.16,0,0,1,3.23-13.8,24.26,24.26,0,0,1,11.7-11.42,35.89,35.89,0,0,0,9.61-6,1.5,1.5,0,0,1,2,2.2,38.59,38.59,0,0,1-10.42,6.57,21.44,21.44,0,0,0-10.27,10.06A27.31,27.31,0,0,0,155,187.83v11.9A1.5,1.5,0,0,1,153.46,201.23Z"></path> <line class="cls-4" x1="129.1" y1="178.7" x2="131.19" y2="180.17"></line> <path class="cls-3" d="M131.19,181.67a1.51,1.51,0,0,1-.86-.27l-2.09-1.47a1.5,1.5,0,1,1,1.73-2.46l2.08,1.48a1.5,1.5,0,0,1,.37,2.09A1.52,1.52,0,0,1,131.19,181.67Z"></path> <path class="cls-3" d="M139.87,125.69a7.64,7.64,0,1,1,4.18-14,1.5,1.5,0,0,1-1.64,2.52,4.59,4.59,0,0,0-2.54-.76,4.64,4.64,0,1,0,4.37,6.21,1.5,1.5,0,1,1,2.82,1A7.67,7.67,0,0,1,139.87,125.69Z"></path> <circle class="cls-2" cx="165.21" cy="100.68" r="27.59"></circle> <path class="cls-3" d="M165.21,129.77a29.09,29.09,0,1,1,29.09-29.09A29.12,29.12,0,0,1,165.21,129.77Zm0-55.18a26.09,26.09,0,1,0,26.09,26.09A26.13,26.13,0,0,0,165.21,74.59Z"></path> <polyline class="cls-1" points="137.78 71.63 130.64 87.92 135.66 97.88 142.35 87.07 148.91 83.2 166.39 72.91 173.63 68.72 171.22 61.83"></polyline> <path class="cls-1" d="M137.7,98.75a7.53,7.53,0,0,1,.05-1c.62-6,3.27-9,8.18-12.56a113.08,113.08,0,0,1,19.32-11.59l1.11-.52h0a27.6,27.6,0,0,1,8.26,1.62c7.4-7.77,10.83-34-8.66-29.6-19.64,4.42-42.67,20.34-41.56,41,.75,13.92,8.92,19.56,14.18,21.77a27.71,27.71,0,0,1-1-7.22C137.62,100,137.65,99.39,137.7,98.75Z"></path> <path class="cls-3" d="M138.58,109.4a1.51,1.51,0,0,1-.58-.12c-5.29-2.22-14.3-8.17-15.1-23.06-1.1-20.37,20.87-37.63,42.73-42.54,8.44-1.9,12.44,1.63,14.31,4.93,4.27,7.54,1.19,21.47-4.24,27.16a1.51,1.51,0,0,1-1.6.38,25.86,25.86,0,0,0-7.45-1.52l-.77.36a112.65,112.65,0,0,0-19.07,11.45c-4.68,3.38-7,6-7.57,11.5,0,.07,0,.34,0,.81v.11c0,.6-.08,1.21-.08,1.82a26.32,26.32,0,0,0,.91,6.83,1.5,1.5,0,0,1-.46,1.52A1.52,1.52,0,0,1,138.58,109.4ZM170,46.15a17.35,17.35,0,0,0-3.74.45c-17.44,3.92-41.51,18.76-40.39,39.45.57,10.66,5.6,16.22,10.57,19.13a29.46,29.46,0,0,1-.35-4.5c0-.6,0-1.23.08-2a8.41,8.41,0,0,1,.07-1.15c.67-6.51,3.6-9.79,8.78-13.54a114.54,114.54,0,0,1,19.56-11.73l1.16-.54a1.42,1.42,0,0,1,.65-.12A29.25,29.25,0,0,1,174.15,73c4.22-5.26,6.55-17,3.18-22.9C175.85,47.47,173.4,46.15,170,46.15Z"></path> <path class="cls-3" d="M166.36,74.62a1.5,1.5,0,0,1-.68-2.84c1.61-.81,3.65-1.8,5-2.42a1.5,1.5,0,0,1,1.27,2.72c-1.3.6-3.32,1.58-4.9,2.38A1.44,1.44,0,0,1,166.36,74.62Z"></path> </g> </svg> 