<?xml version="1.0" encoding="UTF-8"?> <svg xmlns="http://www.w3.org/2000/svg" viewBox="0 0 256 256"> <defs> <style>.cls-1{fill:#1c6ea0;}.cls-2{fill:#4796ec;}.cls-3{fill:#307fc6;}</style> </defs> <g id="forklift"> <path class="cls-1" d="M157.62,105a1.26,1.26,0,0,1-.62-.17L128.46,88.39a1.26,1.26,0,0,1-.63-1.09,1.25,1.25,0,0,1,.63-1.08L157,69.75a1.22,1.22,0,0,1,1.25,0l28.53,16.47a1.25,1.25,0,0,1,0,2.17l-28.53,16.47A1.29,1.29,0,0,1,157.62,105Zm-26-17.73,26,15,26-15-26-15Z"></path> <polygon class="cls-2" points="186.16 87.3 186.16 101.99 157.62 118.47 157.62 103.78 186.16 87.3"></polygon> <path class="cls-1" d="M157.62,119.72a1.26,1.26,0,0,1-1.25-1.25V103.78a1.24,1.24,0,0,1,.63-1.08l28.53-16.48a1.26,1.26,0,0,1,1.88,1.08V102a1.24,1.24,0,0,1-.63,1.08l-28.53,16.48A1.29,1.29,0,0,1,157.62,119.72Zm1.25-15.22v11.8l26-15V89.47Z"></path> <polygon class="cls-3" points="129.08 87.3 129.08 101.99 157.62 118.47 157.62 103.78 129.08 87.3"></polygon> <path class="cls-1" d="M157.62,119.72a1.26,1.26,0,0,1-.62-.17l-28.54-16.48a1.24,1.24,0,0,1-.63-1.08V87.3a1.25,1.25,0,0,1,.63-1.08,1.27,1.27,0,0,1,1.25,0l28.54,16.48a1.25,1.25,0,0,1,.62,1.08v14.69a1.26,1.26,0,0,1-.62,1.08A1.29,1.29,0,0,1,157.62,119.72Zm-27.29-18.45,26,15V104.5l-26-15Z"></path> <path class="cls-1" d="M109.26,88.08a1.29,1.29,0,0,1-.63-.17L80.09,71.43a1.25,1.25,0,0,1,0-2.16l28.54-16.48a1.27,1.27,0,0,1,1.25,0l28.54,16.48a1.25,1.25,0,0,1,0,2.16L109.88,87.91A1.26,1.26,0,0,1,109.26,88.08Zm-26-17.73,26,15,26-15-26-15Z"></path> <polygon class="cls-2" points="137.79 70.35 137.79 129.91 109.26 146.39 109.26 86.83 137.79 70.35"></polygon> <path class="cls-1" d="M109.26,147.64a1.29,1.29,0,0,1-.63-.17,1.25,1.25,0,0,1-.62-1.08V86.83a1.25,1.25,0,0,1,.62-1.08l28.54-16.48a1.27,1.27,0,0,1,1.25,0,1.23,1.23,0,0,1,.62,1.08v59.56a1.25,1.25,0,0,1-.62,1.09l-28.54,16.47A1.26,1.26,0,0,1,109.26,147.64Zm1.25-60.09v56.68l26-15V72.52Z"></path> <polygon class="cls-3" points="80.72 70.35 80.72 113.64 89.43 118.67 80.72 123.7 80.72 129.91 109.26 146.39 109.26 86.83 80.72 70.35"></polygon> <path class="cls-1" d="M109.26,147.64a1.29,1.29,0,0,1-.63-.17L80.09,131a1.28,1.28,0,0,1-.62-1.09V123.7a1.26,1.26,0,0,1,.62-1.08l6.84-4-6.84-3.94a1.28,1.28,0,0,1-.62-1.09V70.35a1.25,1.25,0,0,1,.62-1.08,1.27,1.27,0,0,1,1.25,0l28.54,16.48a1.24,1.24,0,0,1,.63,1.08v59.56a1.24,1.24,0,0,1-.63,1.08A1.26,1.26,0,0,1,109.26,147.64ZM82,129.19l26,15V87.55l-26-15v40.4l8.09,4.67a1.26,1.26,0,0,1,.62,1.08,1.28,1.28,0,0,1-.62,1.09L82,124.42Z"></path> <path class="cls-1" d="M60.89,136.4a1.26,1.26,0,0,1-.62-.17L31.73,119.76a1.26,1.26,0,0,1-.63-1.09,1.25,1.25,0,0,1,.63-1.08l28.54-16.48a1.27,1.27,0,0,1,1.25,0l28.54,16.48a1.26,1.26,0,0,1,.62,1.08,1.28,1.28,0,0,1-.62,1.09L61.52,136.23A1.29,1.29,0,0,1,60.89,136.4Zm-26-17.73,26,15,26-15-26-15Z"></path> <polygon class="cls-2" points="89.43 118.67 89.43 157.84 60.89 174.31 60.89 135.15 89.43 118.67"></polygon> <path class="cls-1" d="M60.89,175.56a1.25,1.25,0,0,1-.62-.16,1.26,1.26,0,0,1-.63-1.09V135.15a1.24,1.24,0,0,1,.63-1.08l28.54-16.48a1.25,1.25,0,0,1,1.87,1.08v39.17a1.26,1.26,0,0,1-.62,1.08L61.52,175.4A1.28,1.28,0,0,1,60.89,175.56Zm1.25-39.69v36.28l26-15V120.84Z"></path> <polygon class="cls-3" points="32.35 118.67 32.35 157.84 60.89 174.31 60.89 135.15 32.35 118.67"></polygon> <path class="cls-1" d="M60.89,175.56a1.25,1.25,0,0,1-.62-.16L31.73,158.92a1.25,1.25,0,0,1-.63-1.08V118.67a1.25,1.25,0,0,1,.63-1.08,1.27,1.27,0,0,1,1.25,0l28.54,16.48a1.25,1.25,0,0,1,.62,1.08v39.16a1.23,1.23,0,0,1-1.25,1.25ZM33.6,157.12l26,15V135.87l-26-15Z"></path> <path class="cls-2" d="M153,176.62a1,1,0,0,1-.84-.45l-2.48-3.79a1,1,0,0,1,.75-1.54,29.78,29.78,0,0,0,7.66-1.77L154,166.73a30.63,30.63,0,0,1-9.91,2.13,13.29,13.29,0,0,1-6.85-1.76c-2.22-1.28-3.44-2.95-3.54-4.82-.07-1.32.43-3.3,3-5.54l-2.84-1.63a1,1,0,0,1,0-1.74l3.7-2.13a1,1,0,0,1,.5-.14,1,1,0,0,1,.5.14l3.58,2.06a33,33,0,0,1,9.61-2.89h.12a1,1,0,0,1,.81.41l2.71,3.7a1,1,0,0,1,.11,1,1,1,0,0,1-.76.6,32.2,32.2,0,0,0-5.47,1.34l4.11,2.37a30.12,30.12,0,0,1,9.81-2.13A13.18,13.18,0,0,1,170,159.4c2.18,1.26,3.38,2.9,3.49,4.75s-.89,3.71-3,5.52l2.88,1.66a1,1,0,0,1,.5.87,1,1,0,0,1-.5.86l-3.7,2.14a1,1,0,0,1-.5.14,1,1,0,0,1-.5-.14l-3.57-2.06A35.12,35.12,0,0,1,153,176.62Zm10.7-10.9a1,1,0,0,0,.23-.48c0-.09-.15-.24-.43-.41a3.07,3.07,0,0,0-1.53-.34h-.38Zm-20.06-5a.89.89,0,0,0-.22.51c0,.12.15.31.52.52a2.87,2.87,0,0,0,1.48.34h0l.54,0Z"></path> <path class="cls-1" d="M151.89,151.4l2.71,3.7a29.73,29.73,0,0,0-7.59,2.15l6.29,3.64a30.07,30.07,0,0,1,9.91-2.23,12.25,12.25,0,0,1,6.27,1.61c3.85,2.22,4.37,5.77-.74,9.53l4.15,2.4-3.7,2.14-4-2.33A34.38,34.38,0,0,1,153,175.62l-2.48-3.79a30.17,30.17,0,0,0,9.81-2.62l-6.18-3.58c-3.14,1.11-6.59,2.23-10,2.23a12.36,12.36,0,0,1-6.35-1.63c-3.92-2.26-4.44-5.85.74-9.62l-4.11-2.37,3.7-2.14,4,2.33a31.9,31.9,0,0,1,9.77-3m-6.5,11.69a11.92,11.92,0,0,0,3.28-.6l-5.25-3c-1.52,1.39-1.23,2.46,0,3.16a3.89,3.89,0,0,0,2,.47M163.85,167c1.45-1.3,1.3-2.33.12-3a4,4,0,0,0-2-.48,12.23,12.23,0,0,0-3.19.54l5.1,2.95m-12-17.58h-.25a34,34,0,0,0-9.43,2.77l-3.13-1.81a2,2,0,0,0-1-.27,2,2,0,0,0-1,.27l-3.7,2.14a2,2,0,0,0-1,1.73,2,2,0,0,0,1,1.73l1.68,1a7.27,7.27,0,0,0-2.35,5.4c.08,1.55.85,3.78,4,5.63a14.57,14.57,0,0,0,7.35,1.89,30.29,30.29,0,0,0,9.81-2l1.73,1a27.5,27.5,0,0,1-5.33,1,2,2,0,0,0-1.62,1.12,2,2,0,0,0,.12,2l2.49,3.79a2,2,0,0,0,1.67.9h.14a35.68,35.68,0,0,0,12-3.34l3.12,1.8a2,2,0,0,0,1,.27,2,2,0,0,0,1-.27l3.7-2.14a2,2,0,0,0,1-1.73,2,2,0,0,0-1-1.73l-1.73-1a7.23,7.23,0,0,0,2.3-5.38c-.08-1.53-.84-3.74-4-5.55a14.3,14.3,0,0,0-7.27-1.88,29.92,29.92,0,0,0-9.71,2l-1.71-1c1-.25,2-.47,3.12-.64a2,2,0,0,0,1.3-3.15l-2.7-3.7a2,2,0,0,0-1.62-.82Z"></path> <path class="cls-2" d="M201.21,149.29a1,1,0,0,1-.5-.13l-4.82-2.78a1,1,0,0,1,0-1.73l2.21-1.28-4.37-2.52-3.21,1.85a1,1,0,0,1-.5.14,1,1,0,0,1-.5-.14l-3.59-2.07a1,1,0,0,1,0-1.73l2.22-1.28c-3.81-2.36-4.63-4.79-4.63-6.45,0-2.83,2.21-5.54,6.56-8a27.47,27.47,0,0,1,9.49-3.44h.16a1,1,0,0,1,.79.39l2.92,3.78a1,1,0,0,1,.14,1,1,1,0,0,1-.79.62,18,18,0,0,0-6.53,2.31c-1.71,1-2.66,2-2.66,2.74s.71,1.41,2,2.15l.57.34,8.39-4.85a1,1,0,0,1,.5-.13,1,1,0,0,1,.5.13l3.59,2.08a1,1,0,0,1,0,1.73l-7.39,4.26,4.37,2.53,12.2-7.05a1,1,0,0,1,.5-.13,1,1,0,0,1,.5.13l4.82,2.78a1,1,0,0,1,0,1.73l-22.44,13A1,1,0,0,1,201.21,149.29Z"></path> <path class="cls-1" d="M199.72,120.67l2.93,3.79a19.33,19.33,0,0,0-6.89,2.43c-3.92,2.27-4.25,4.56-.66,6.63l1.07.62,8.89-5.13,3.59,2.07-8.89,5.13,6.37,3.68,12.7-7.33,4.82,2.78-22.44,12.95-4.82-2.78,3.71-2.14-6.37-3.67L190,141.84l-3.59-2.08,3.71-2.14-1-.55c-6.59-3.81-6.22-8.68,1.41-13.08a26.38,26.38,0,0,1,9.14-3.32m0-2a1.66,1.66,0,0,0-.32,0,28.71,28.71,0,0,0-9.83,3.55c-4.68,2.71-7.06,5.71-7.06,8.92,0,1.69.71,4.05,3.75,6.38l-.84.48a2,2,0,0,0-1,1.73,2,2,0,0,0,1,1.73l3.59,2.08a2,2,0,0,0,1,.27,2,2,0,0,0,1-.27l2.71-1.56,2.37,1.36-.71.41a2,2,0,0,0-1,1.73,2,2,0,0,0,1,1.73l4.82,2.78a2,2,0,0,0,1,.27,2,2,0,0,0,1-.27l22.44-13a2,2,0,0,0,1-1.73,2,2,0,0,0-1-1.73l-4.82-2.78a2,2,0,0,0-1-.27,2,2,0,0,0-1,.27l-11.7,6.75-2.37-1.37,5.89-3.39a2,2,0,0,0,0-3.47l-3.59-2.07a2,2,0,0,0-1-.27,2,2,0,0,0-1,.27l-7.89,4.55-.07,0c-1.37-.79-1.5-1.29-1.5-1.29s.14-.71,2.16-1.88a17.12,17.12,0,0,1,6.17-2.18,2,2,0,0,0,1.3-3.21l-2.92-3.78a2,2,0,0,0-1.58-.78Z"></path> <path class="cls-2" d="M96.33,203.13a1,1,0,0,1-.5-.14l-3.11-1.79a1,1,0,0,1,0-1.73l-1,.57a1,1,0,0,1-.5.13,1,1,0,0,1-.5-.13l-3.11-1.79a1,1,0,0,1,0-1.74l3.16-1.82A7.54,7.54,0,0,1,89.25,189c.45-3,2.77-5.78,6.69-8.05a28.27,28.27,0,0,1,14.13-3.68c.56,0,1.12,0,1.68,0a1,1,0,0,1,.69.34,1,1,0,0,1,.25.72l-.26,4.26a1,1,0,0,1-1,.94h-.91a16.18,16.18,0,0,0-8.18,1.91c-1.38.8-3.41,2.33-3.11,4.32l8.33-4.81a1,1,0,0,1,.5-.13,1,1,0,0,1,.5.13l3.11,1.8a1,1,0,0,1,.5.86,1,1,0,0,1-.48.86l1-.57a1,1,0,0,1,.5-.13,1,1,0,0,1,.5.13l3.11,1.8a1,1,0,0,1,0,1.73l-6.63,3.82a15.75,15.75,0,0,0,7.77-2c2.23-1.28,3.2-2.78,3-4.58a1,1,0,0,1,.24-.77,1,1,0,0,1,.73-.34l7.39-.15a1,1,0,0,1,1,.82c.44,2.53-.32,6.29-6.52,9.87a30.86,30.86,0,0,1-23.11,2.61L96.83,203A1,1,0,0,1,96.33,203.13Z"></path> <path class="cls-1" d="M110.08,178.29c.53,0,1.07,0,1.62,0l-.26,4.26c-.31,0-.61,0-.91,0a17.08,17.08,0,0,0-8.68,2.05c-3.3,1.9-4.37,4.36-3.15,6.65l9.37-5.41,3.11,1.79-10.3,5.95a11.35,11.35,0,0,0,1,.59,10.08,10.08,0,0,0,1,.56l10.3-5.94,3.11,1.79L106.92,196a18.24,18.24,0,0,0,3.21.28,16.65,16.65,0,0,0,8.3-2.1c2.6-1.49,3.74-3.35,3.49-5.55l7.36-.15c.56,3.14-1.51,6.22-6,8.83a29.88,29.88,0,0,1-22.74,2.39l-4.18,2.42-3.11-1.8,3.63-2.1c-.37-.17-.71-.36-1-.55a11.2,11.2,0,0,1-1-.6l-3.63,2.09-3.11-1.79L92.29,195c-3.88-4.21-2.4-9.34,4.15-13.12a27.26,27.26,0,0,1,13.64-3.55m0-2a29.27,29.27,0,0,0-14.64,3.82c-4.19,2.42-6.68,5.45-7.18,8.76a8.22,8.22,0,0,0,1.1,5.48l-2.25,1.3a2,2,0,0,0,0,3.46l3.11,1.8a2,2,0,0,0,1,.26h.18a2,2,0,0,0,.82.89l3.11,1.8a2,2,0,0,0,1,.27,2,2,0,0,0,1-.27l3.44-2a32,32,0,0,0,23.48-2.82c3-1.75,8-5.49,7-10.91a2,2,0,0,0-2-1.65h0l-7.37.15a2,2,0,0,0-1.94,2.23c.06.55.23,2-2.5,3.59a11.66,11.66,0,0,1-1.92.9l1.78-1a2,2,0,0,0,1-1.73,2,2,0,0,0-1-1.73l-3.11-1.8a2.1,2.1,0,0,0-1-.26H113a2,2,0,0,0-.81-.9l-2.32-1.34h1.58a2,2,0,0,0,2-1.88l.26-4.26a2,2,0,0,0-.5-1.45,2,2,0,0,0-1.38-.67c-.58,0-1.16,0-1.73,0Zm-8.79,11.17a8.64,8.64,0,0,1,1.56-1.11,11.62,11.62,0,0,1,1.85-.86l-3.41,2Z"></path> <path class="cls-2" d="M128,254.28A126.28,126.28,0,1,1,254.28,128,126.42,126.42,0,0,1,128,254.28ZM128,7.72A120.28,120.28,0,1,0,248.28,128,120.41,120.41,0,0,0,128,7.72Z"></path> </g> </svg> 